<svg width="135" height="40" viewBox="0 0 135 40" fill="none" xmlns="http://www.w3.org/2000/svg">
<path fill-rule="evenodd" clip-rule="evenodd" d="M112.72 1.00002V6.52002H128.96V22.8667H134.48V6.52002V1.13335V1.00002H112.72Z" fill="#FF9900"/>
<path fill-rule="evenodd" clip-rule="evenodd" d="M22.7467 39.1067H18.16L14.48 27.88L10.8 39.1067H6.26667L0 16.3334H5.86667L8.82667 28.36L12.5067 16.3334H16.48L20.16 28.36L23.12 16.3334H28.9867L22.7467 39.1067Z" fill="#263640"/>
<path fill-rule="evenodd" clip-rule="evenodd" d="M37.7067 39.1067V16.3334H53.1733V21.32H43.28V25.1334H51.7333V30.12H43.28V34.12H53.1733V39.1067H37.7067Z" fill="#263640"/>
<path fill-rule="evenodd" clip-rule="evenodd" d="M63.5467 39.1067V16.3334H69.1467V39.1067H63.5467Z" fill="#263640"/>
<path fill-rule="evenodd" clip-rule="evenodd" d="M86.64 39.2933C83.4687 39.578 80.3289 38.4795 78.0267 36.28L81.6 32.7067C83.0414 33.8517 84.8561 34.4218 86.6933 34.3067C88.88 34.3067 89.9467 33.56 89.9467 32.2533C89.9726 31.7671 89.8103 31.2896 89.4933 30.92C89.0676 30.5758 88.5462 30.371 88 30.3333L85.3333 29.96C83.6202 29.8187 82.0046 29.1048 80.7467 27.9333C79.6425 26.6796 79.0772 25.0412 79.1733 23.3733C79.1733 19.2133 82.32 16.1733 87.4933 16.1733C90.3133 15.9513 93.0977 16.9181 95.1733 18.84L91.5733 22.3333C90.3858 21.2978 88.8199 20.8048 87.2533 20.9733C85.3067 20.9733 84.5867 22.0933 84.5867 23.08C84.5938 23.4809 84.7564 23.8633 85.04 24.1467C85.4689 24.5483 86.0265 24.7845 86.6133 24.8133L89.28 25.2133C90.9386 25.3233 92.514 25.9797 93.76 27.08C94.9746 28.4447 95.5811 30.2452 95.44 32.0667C95.44 36.76 91.44 39.2933 86.64 39.2933Z" fill="#263640"/>
<path fill-rule="evenodd" clip-rule="evenodd" d="M111.84 39.2934C108.66 39.5824 105.51 38.4839 103.2 36.28L106.667 32.7067C108.112 33.845 109.924 34.4143 111.76 34.3067C113.973 34.3067 115.013 33.56 115.013 32.2534C115.036 31.772 114.885 31.2986 114.587 30.92C114.157 30.5611 113.625 30.3465 113.067 30.3067L110.4 29.9334C108.696 29.7862 107.091 29.0727 105.84 27.9067C104.726 26.6591 104.159 25.0161 104.267 23.3467C104.267 19.1867 107.387 16.1467 112.587 16.1467C115.399 15.9257 118.174 16.8929 120.24 18.8134L116.773 22.3334C115.586 21.2978 114.02 20.8049 112.453 20.9734C110.48 20.9734 109.787 22.0934 109.787 23.08C109.794 23.4809 109.956 23.8633 110.24 24.1467C110.669 24.5483 111.226 24.7845 111.813 24.8134L114.48 25.2134C116.139 25.3234 117.714 25.9798 118.96 27.08C120.195 28.434 120.813 30.2398 120.667 32.0667C120.64 36.76 116.64 39.2934 111.84 39.2934Z" fill="#263640"/>
</svg>
